<?xml version="1.0" encoding="UTF-8"?>
<svg id="Layer_2" data-name="Layer 2" xmlns="http://www.w3.org/2000/svg" viewBox="0 0 142.43 34.24">
  <defs>
    <style>
      .cls-1 {
        fill: #e9e8e7;
      }
    </style>
  </defs>
  <g id="Layer_1-2" data-name="Layer 1">
    <g>
      <path class="cls-1" d="M1.43,31.77c0-1.11.49-2.02.94-2.64,1.25.52,2.64.8,3.89.8,1.81,0,2.64-.66,3.58-2.71L1.32,10.22l-1.32-.59v-.17h9.49v.17l-1.81.59,5.14,10.64.9-2.02c2.92-6.29,2.57-8.45-.66-9.11l-.42-.1v-.17h6.88v.17l-1.32.59-7.96,17c-2.47,5.21-4.59,7.02-6.5,7.02-1.43,0-2.33-.94-2.33-2.47Z"/>
      <path class="cls-1" d="M19.01,26.94l1.98-.7v-13.97l-1.98-.52v-.17l7.61-2.64h.03v17.31l1.95.7v.17h-9.59v-.17ZM23.81,1.91c2.02,0,3.27,1.22,3.27,2.99,0,1.67-1.25,2.92-3.27,2.92s-3.27-1.25-3.27-2.92c0-1.77,1.22-2.99,3.27-2.99Z"/>
      <path class="cls-1" d="M31.73,27.08l-1.15-6.43h.21c1.08,3.48,4.48,5.98,8.1,5.98,1.84,0,2.64-.83,2.64-1.88,0-1.15-.87-2.12-4.31-3.72l-2.33-1.04c-3.93-1.81-5.08-3.13-5.08-5.14,0-2.71,3.44-5.91,8.55-5.91,2.4,0,3.89.42,4.87.76v5.15h-.17c-.66-3.16-3.3-5.35-6.22-5.35-1.77,0-2.64.8-2.64,1.88,0,1.15.8,2.09,3.48,3.3l1.67.8c3.48,1.6,5.11,3.27,5.11,5.88,0,3.34-2.92,6.29-8.76,6.29-2.02,0-3.3-.35-3.96-.56Z"/>
      <path class="cls-1" d="M45.81,24.34c0-.97.52-1.53,2.22-2.29l6.88-2.99v-4.62c0-2.89-1.04-3.79-2.54-3.79-1.39,0-2.61.76-2.61,2.85,0,1.01.28,2.09.63,2.92-.24.21-.87.66-1.88.66-1.25,0-2.09-.73-2.09-1.84,0-1.18.83-2.26,3.37-3.96,2.47-1.63,3.93-2.33,5.63-2.33,2.92,0,5.08,1.98,5.08,5.32v10.05c0,.76.52,1.32,1.39,1.32.59,0,.97-.14,1.53-.31v.21c-1.84,1.04-3.44,2.05-5.18,2.05-2.12,0-3.3-1.36-3.34-3.37-1.08,1.84-2.54,3.44-5.04,3.44s-4.07-1.67-4.07-3.3ZM53.07,24.75c.97,0,1.56-.52,1.84-1.11v-4.17l-2.09.9c-1.36.66-1.88,1.29-1.88,2.29,0,1.18.87,2.09,2.12,2.09Z"/>
      <path class="cls-1" d="M65.06,3.06l-1.95-.52v-.17l7.61-2.36h.03v12.93c1.77-1.88,3.93-4,6.57-4,3.09,0,6.26,2.75,6.26,8.41,0,6.57-4.14,10.29-9.42,10.29-2.4,0-4.94-.8-7.65-1.88l-1.29,2.19h-.17V3.06ZM74.1,27.26c1.88,0,3.72-2.16,3.72-7.3,0-5.49-2.29-7.61-4.52-7.61-1.08,0-1.98.52-2.54,1.04v11.78c.76,1.04,1.84,2.09,3.34,2.09Z"/>
      <path class="cls-1" d="M85.46,18.74c0-6.01,4.38-9.8,9.56-9.8,4.41,0,6.88,2.26,7.16,4.9h-10.95c-.03.42-.07.87-.07,1.32,0,5.95,2.61,8.66,6.78,8.66,2.95,0,4.1-1.35,4.87-3.62l.21.07c-.97,3.37-3.16,7.37-8.66,7.37-5.18,0-8.9-3.51-8.9-8.9ZM96.73,13.28c-.21-2.22-1.25-3.93-2.68-3.93s-2.5,1.46-2.82,4.17l5.49-.24Z"/>
      <path class="cls-1" d="M103.5,26.94l1.98-.7v-13.97l-1.98-.52v-.17l7.61-2.64h.03v17.31l1.95.7v.17h-9.59v-.17ZM108.3,1.91c2.02,0,3.27,1.22,3.27,2.99,0,1.67-1.25,2.92-3.27,2.92s-3.27-1.25-3.27-2.92c0-1.77,1.22-2.99,3.27-2.99Z"/>
      <path class="cls-1" d="M114.1,26.94l1.98-.7V3.06l-1.98-.52v-.17l7.61-2.36h.03v26.25l1.95.7v.17h-9.59v-.17Z"/>
      <path class="cls-1" d="M124.81,24.34c0-.97.52-1.53,2.22-2.29l6.88-2.99v-4.62c0-2.89-1.04-3.79-2.54-3.79-1.39,0-2.61.76-2.61,2.85,0,1.01.28,2.09.63,2.92-.24.21-.87.66-1.88.66-1.25,0-2.09-.73-2.09-1.84,0-1.18.83-2.26,3.37-3.96,2.47-1.63,3.93-2.33,5.63-2.33,2.92,0,5.08,1.98,5.08,5.32v10.05c0,.76.52,1.32,1.39,1.32.59,0,.97-.14,1.53-.31v.21c-1.84,1.04-3.44,2.05-5.18,2.05-2.12,0-3.3-1.36-3.34-3.37-1.08,1.84-2.54,3.44-5.04,3.44s-4.07-1.67-4.07-3.3ZM132.07,24.75c.97,0,1.56-.52,1.84-1.11v-4.17l-2.09.9c-1.36.66-1.88,1.29-1.88,2.29,0,1.18.87,2.09,2.12,2.09Z"/>
    </g>
  </g>
</svg>